<svg width="26" height="10" viewBox="0 0 26 10" fill="none" xmlns="http://www.w3.org/2000/svg">
<path d="M10.6289 2.84766C10.6172 2.90234 10.5918 2.94531 10.5527 2.97656C10.5137 3.00781 10.4707 3.02344 10.4238 3.02344C10.3535 3.02344 10.2969 3.00195 10.2539 2.95898C10.2109 2.91211 10.1895 2.85938 10.1895 2.80078C10.1895 2.74219 10.1953 2.68555 10.207 2.63086C10.2188 2.57227 10.2246 2.51562 10.2246 2.46094C10.2246 2.17578 10.1367 1.91992 9.96094 1.69336C9.78516 1.4668 9.53516 1.27734 9.21094 1.125C8.89062 0.96875 8.5 0.849609 8.03906 0.767578C7.57812 0.685547 7.06445 0.644531 6.49805 0.644531C6.06445 0.644531 5.62695 0.673828 5.18555 0.732422C4.74805 0.787109 4.32617 0.869141 3.91992 0.978516C3.51758 1.08398 3.14062 1.21875 2.78906 1.38281C2.4375 1.54297 2.13086 1.73047 1.86914 1.94531C1.61133 2.15625 1.4082 2.39258 1.25977 2.6543C1.11133 2.91211 1.03711 3.19531 1.03711 3.50391C1.03711 3.74219 1.08789 3.95312 1.18945 4.13672C1.29492 4.31641 1.4375 4.47461 1.61719 4.61133C1.79688 4.74414 2.00781 4.85938 2.25 4.95703C2.49609 5.05078 2.76172 5.13086 3.04688 5.19727C3.33203 5.25977 3.62891 5.3125 3.9375 5.35547C4.24609 5.39453 4.55664 5.42773 4.86914 5.45508L5.77148 5.53125C6.2207 5.57031 6.62305 5.61133 6.97852 5.6543C7.33398 5.69727 7.64648 5.75195 7.91602 5.81836C8.36523 5.93164 8.69727 6.09375 8.91211 6.30469C9.12695 6.51562 9.23438 6.79688 9.23438 7.14844C9.23438 7.48828 9.14062 7.78711 8.95312 8.04492C8.76562 8.30273 8.50977 8.51953 8.18555 8.69531C7.86133 8.87109 7.48242 9.00391 7.04883 9.09375C6.61523 9.18359 6.15039 9.22852 5.6543 9.22852C5.11523 9.22852 4.64062 9.19141 4.23047 9.11719C3.82422 9.04688 3.48242 8.96875 3.20508 8.88281C2.93164 8.79297 2.72266 8.71094 2.57812 8.63672C2.43359 8.5625 2.35547 8.52148 2.34375 8.51367C2.27344 8.47461 2.23828 8.41211 2.23828 8.32617C2.23828 8.25977 2.26172 8.20703 2.30859 8.16797C2.35547 8.125 2.40625 8.10352 2.46094 8.10352C2.50391 8.10352 2.54297 8.11523 2.57812 8.13867C2.58203 8.13867 2.64844 8.17383 2.77734 8.24414C2.91016 8.31055 3.10547 8.38477 3.36328 8.4668C3.625 8.54883 3.94727 8.62305 4.33008 8.68945C4.71289 8.75586 5.1582 8.78906 5.66602 8.78906C6.16992 8.78906 6.61523 8.74805 7.00195 8.66602C7.38867 8.58398 7.71289 8.4707 7.97461 8.32617C8.24023 8.17773 8.43945 8.00586 8.57227 7.81055C8.70898 7.61133 8.77734 7.39648 8.77734 7.16602C8.77734 7.0293 8.75195 6.91211 8.70117 6.81445C8.6543 6.71289 8.58789 6.62695 8.50195 6.55664C8.41602 6.48242 8.3125 6.41992 8.19141 6.36914C8.07422 6.31836 7.94531 6.27539 7.80469 6.24023C7.65625 6.20117 7.49609 6.16797 7.32422 6.14062C7.15625 6.11328 6.98242 6.08984 6.80273 6.07031C6.62305 6.05078 6.44141 6.0332 6.25781 6.01758C6.07812 6.00195 5.90039 5.98633 5.72461 5.9707L4.82227 5.89453C4.11133 5.83594 3.49023 5.74609 2.95898 5.625C2.43164 5.5 1.99219 5.3418 1.64062 5.15039C1.28906 4.95508 1.02539 4.72266 0.849609 4.45312C0.673828 4.18359 0.585938 3.86914 0.585938 3.50977C0.585938 3.14258 0.667969 2.80664 0.832031 2.50195C1 2.19336 1.22656 1.91602 1.51172 1.66992C1.80078 1.42383 2.13672 1.21094 2.51953 1.03125C2.90625 0.847656 3.31836 0.695313 3.75586 0.574219C4.19336 0.453125 4.64648 0.363281 5.11523 0.304688C5.58398 0.242187 6.04492 0.210938 6.49805 0.210938C7.06445 0.210938 7.55664 0.246094 7.97461 0.316406C8.39648 0.382812 8.75586 0.470703 9.05273 0.580078C9.35352 0.685547 9.59961 0.806641 9.79102 0.943359C9.98242 1.08008 10.1367 1.21484 10.2539 1.34766C10.5312 1.67187 10.6699 2.04102 10.6699 2.45508C10.6699 2.5918 10.6562 2.72266 10.6289 2.84766ZM23.8125 1.45312C23.6445 1.69922 23.457 1.99414 23.25 2.33789C23.043 2.68164 22.8223 3.06641 22.5879 3.49219C22.3887 3.84766 22.1914 4.22656 21.9961 4.62891C21.8047 5.02734 21.6211 5.42383 21.4453 5.81836C21.2695 6.20898 21.1074 6.58594 20.959 6.94922C20.8105 7.30859 20.6816 7.62695 20.5723 7.9043C20.4629 8.17773 20.377 8.39844 20.3145 8.56641C20.252 8.73047 20.2207 8.81445 20.2207 8.81836C20.1816 8.91602 20.1113 8.96484 20.0098 8.96484C19.959 8.96484 19.9141 8.94922 19.875 8.91797C19.8359 8.88281 19.8105 8.83984 19.7988 8.78906C19.7988 8.78516 19.7793 8.70312 19.7402 8.54297C19.7051 8.37891 19.6562 8.16211 19.5938 7.89258C19.5312 7.61914 19.459 7.30664 19.377 6.95508C19.2988 6.59961 19.2148 6.23047 19.125 5.84766C19.0391 5.46094 18.9512 5.07031 18.8613 4.67578C18.7715 4.28125 18.6875 3.90625 18.6094 3.55078C18.3477 4.28906 18.084 4.94336 17.8184 5.51367C17.5566 6.08008 17.2871 6.57422 17.0098 6.99609C16.7324 7.41406 16.4453 7.76562 16.1484 8.05078C15.8555 8.33594 15.5469 8.56641 15.2227 8.74219C14.9023 8.91406 14.5645 9.03711 14.209 9.11133C13.8574 9.18555 13.4844 9.22266 13.0898 9.22266C12.8867 9.22266 12.6699 9.19922 12.4395 9.15234C12.209 9.10938 11.9805 9.04102 11.7539 8.94727C11.5273 8.85352 11.3105 8.73633 11.1035 8.5957C10.8965 8.45508 10.7129 8.28906 10.5527 8.09766C10.3926 7.90234 10.2656 7.68359 10.1719 7.44141C10.0781 7.19531 10.0312 6.92188 10.0312 6.62109C10.0312 6.30469 10.0977 6.01562 10.2305 5.75391C10.3633 5.48828 10.543 5.26172 10.7695 5.07422C10.9961 4.88281 11.2578 4.73438 11.5547 4.62891C11.8555 4.52344 12.1719 4.4707 12.5039 4.4707C12.7461 4.4707 12.9629 4.49219 13.1543 4.53516C13.3496 4.57422 13.5215 4.625 13.6699 4.6875C13.8184 4.75 13.9453 4.81836 14.0508 4.89258C14.1562 4.9668 14.2441 5.03516 14.3145 5.09766C14.3848 5.16016 14.4355 5.21484 14.4668 5.26172C14.498 5.30469 14.5156 5.32617 14.5195 5.32617C14.543 5.36914 14.5547 5.41016 14.5547 5.44922C14.5547 5.50391 14.5332 5.55469 14.4902 5.60156C14.4512 5.64844 14.3984 5.67188 14.332 5.67188C14.2539 5.67188 14.1914 5.63867 14.1445 5.57227C14.1406 5.56836 14.1094 5.5332 14.0508 5.4668C13.9922 5.39648 13.8965 5.32031 13.7637 5.23828C13.6309 5.15625 13.459 5.08203 13.248 5.01562C13.041 4.94922 12.7871 4.91602 12.4863 4.91602C12.2129 4.91602 11.9531 4.95898 11.707 5.04492C11.4648 5.12695 11.252 5.24414 11.0684 5.39648C10.8887 5.54883 10.7441 5.73047 10.6348 5.94141C10.5293 6.14844 10.4766 6.37695 10.4766 6.62695C10.4766 6.87305 10.5176 7.09766 10.5996 7.30078C10.6816 7.50391 10.791 7.68555 10.9277 7.8457C11.0645 8.00586 11.2227 8.14453 11.4023 8.26172C11.582 8.37891 11.7695 8.47656 11.9648 8.55469C12.1602 8.62891 12.3555 8.68555 12.5508 8.72461C12.75 8.75977 12.9375 8.77734 13.1133 8.77734C13.4102 8.77734 13.6992 8.75586 13.9805 8.71289C14.2656 8.66602 14.5449 8.58008 14.8184 8.45508C15.0957 8.33008 15.3672 8.1582 15.6328 7.93945C15.8984 7.7207 16.1621 7.43555 16.4238 7.08398C16.6855 6.73242 16.9434 6.30859 17.1973 5.8125C17.4551 5.31641 17.7129 4.73047 17.9707 4.05469C18.0488 3.85156 18.125 3.63281 18.1992 3.39844C18.2734 3.16406 18.3496 2.92773 18.4277 2.68945C18.3613 2.3457 18.3125 2.05273 18.2812 1.81055C18.2539 1.56836 18.2402 1.36719 18.2402 1.20703C18.2402 1.03516 18.2539 0.898437 18.2812 0.796875C18.3086 0.695313 18.3438 0.619141 18.3867 0.568359C18.4297 0.513672 18.4766 0.480469 18.5273 0.46875C18.5781 0.453125 18.627 0.445312 18.6738 0.445312C18.7129 0.445312 18.7559 0.453125 18.8027 0.46875C18.8535 0.484375 18.8984 0.519531 18.9375 0.574219C18.9805 0.625 19.0156 0.701172 19.043 0.802734C19.0703 0.904297 19.084 1.04102 19.084 1.21289C19.084 1.40039 19.0664 1.61719 19.0312 1.86328C18.9961 2.10938 18.9434 2.38086 18.873 2.67773C18.9238 2.91602 18.9824 3.18164 19.0488 3.47461C19.1152 3.76758 19.1836 4.07227 19.2539 4.38867C19.3242 4.70117 19.3965 5.02148 19.4707 5.34961C19.5449 5.67773 19.6172 5.99805 19.6875 6.31055C19.7578 6.62305 19.8242 6.92188 19.8867 7.20703C19.9531 7.49219 20.0137 7.75 20.0684 7.98047C20.1738 7.71484 20.3027 7.39453 20.4551 7.01953C20.6074 6.64062 20.7773 6.24023 20.9648 5.81836C21.1523 5.39258 21.3496 4.96094 21.5566 4.52344C21.7676 4.08203 21.9824 3.66602 22.2012 3.27539C22.5098 2.7207 22.793 2.24609 23.0508 1.85156C23.3086 1.45312 23.5312 1.125 23.7188 0.867188C23.9062 0.609375 24.0527 0.419922 24.1582 0.298828C24.2676 0.173828 24.3262 0.105469 24.334 0.09375C24.377 0.0507813 24.4297 0.0292969 24.4922 0.0292969C24.5586 0.0292969 24.6113 0.0527344 24.6504 0.0996094C24.6934 0.142578 24.7148 0.193359 24.7148 0.251953C24.7148 0.279297 24.709 0.306641 24.6973 0.333984C24.6973 0.337891 24.6738 0.396484 24.627 0.509766C24.584 0.619141 24.5273 0.771484 24.457 0.966797C24.3906 1.1582 24.3164 1.38477 24.2344 1.64648C24.1523 1.9043 24.0723 2.18359 23.9941 2.48438C23.916 2.78125 23.8457 3.09375 23.7832 3.42188C23.7246 3.74609 23.6816 4.07031 23.6543 4.39453C23.6426 4.54297 23.6328 4.69922 23.625 4.86328C23.6172 5.02344 23.6133 5.18555 23.6133 5.34961C23.6133 5.60742 23.625 5.86719 23.6484 6.12891C23.6719 6.39062 23.7109 6.64258 23.7656 6.88477C23.8203 7.12695 23.8945 7.35547 23.9883 7.57031C24.082 7.78125 24.1973 7.9668 24.334 8.12695C24.4707 8.28711 24.6328 8.41602 24.8203 8.51367C25.0117 8.61133 25.2324 8.66406 25.4824 8.67188C25.5449 8.67578 25.5938 8.70312 25.6289 8.75391C25.668 8.80078 25.6875 8.85156 25.6875 8.90625C25.6875 8.96094 25.666 9.00977 25.623 9.05273C25.5801 9.0957 25.5293 9.11719 25.4707 9.11719C25.4082 9.11719 25.3457 9.11133 25.2832 9.09961C25.002 9.06055 24.7539 8.98047 24.5391 8.85938C24.3242 8.73438 24.1387 8.58203 23.9824 8.40234C23.8262 8.21875 23.6953 8.01172 23.5898 7.78125C23.4883 7.54688 23.4062 7.29688 23.3438 7.03125C23.2812 6.76562 23.2363 6.49023 23.209 6.20508C23.1855 5.91602 23.1738 5.625 23.1738 5.33203C23.1738 4.98438 23.1914 4.63672 23.2266 4.28906C23.2617 3.94141 23.3086 3.60352 23.3672 3.27539C23.4258 2.94336 23.4941 2.62305 23.5723 2.31445C23.6504 2.00586 23.7305 1.71875 23.8125 1.45312Z" fill="black"/>
</svg>
